<svg width="12" height="12" viewBox="0 0 12 12" fill="none" xmlns="http://www.w3.org/2000/svg">
<path d="M2.18166 0C0.978642 0 0 0.978769 0 2.18166C0 3.3848 0.978642 4.36364 2.18166 4.36364C3.38468 4.36364 4.36345 3.38487 4.36345 2.18166C4.36345 0.978769 3.38468 0 2.18166 0Z" fill="white"/>
<path d="M9.8178 4.36364C8.61476 4.36364 7.63611 3.38485 7.63611 2.18163C7.63611 0.978783 8.61476 0 9.8178 0C11.0208 0 11.9996 0.978783 11.9996 2.18169C11.9996 3.38485 11.0208 4.36364 9.8178 4.36364Z" fill="white"/>
<path d="M2.18169 12C0.978656 12 0 11.0212 0 9.81836C0 8.6152 0.978656 7.63635 2.18169 7.63635C3.38472 7.63635 4.36351 8.61514 4.36351 9.81836C4.36351 11.0212 3.38472 12 2.18169 12Z" fill="white"/>
<path d="M9.81788 7.63635C8.61487 7.63635 7.63623 8.61512 7.63623 9.81833C7.63623 11.0212 8.61487 12 9.81788 12C11.0209 12 11.9997 11.0212 11.9997 9.81833C11.9997 8.61512 11.0209 7.63635 9.81788 7.63635Z" fill="white"/>
</svg>
