<svg width="18" height="18" viewBox="0 0 18 18" fill="none" xmlns="http://www.w3.org/2000/svg">
<g clip-path="url(#clip0_206_97)">
<path d="M4.21875 9C4.21875 8.10819 4.46446 7.27277 4.89132 6.55745V3.52318H1.85706C0.652781 5.08721 0 6.99335 0 9C0 11.0066 0.652781 12.9128 1.85706 14.4768H4.89132V11.4425C4.46446 10.7272 4.21875 9.89181 4.21875 9Z" fill="#181819"/>
<path d="M8.99968 13.7813L6.8903 15.8906L8.99968 18C11.0064 18 12.9125 17.3472 14.4765 16.1429V13.1119H11.4455C10.7239 13.5403 9.88495 13.7813 8.99968 13.7813Z" fill="#181819"/>
<path d="M4.89132 11.4425L1.85706 14.4768C2.09549 14.7865 2.35548 15.083 2.63641 15.364C4.33628 17.0638 6.59569 18 8.99968 18V13.7813C7.25508 13.7813 5.72636 12.8419 4.89132 11.4425Z" fill="#181819"/>
<path d="M18.0001 9C18.0001 8.45244 17.9506 7.90386 17.8528 7.36956L17.7736 6.93717H9.00013V11.1559H13.2699C12.8553 11.9807 12.2174 12.6536 11.4455 13.1119L14.4765 16.1429C14.7861 15.9045 15.0831 15.6449 15.3641 15.364C17.064 13.6641 18.0001 11.404 18.0001 9Z" fill="#181819"/>
<path d="M12.3805 5.61913L12.7534 5.992L15.7365 3.00892L15.3637 2.63605C13.6638 0.936176 11.4037 0 8.99968 0L6.8903 2.10938L8.99968 4.21875C10.2768 4.21875 11.4775 4.71607 12.3805 5.61913Z" fill="#181819"/>
<path d="M8.99968 4.21875V0C6.59569 0 4.33555 0.936176 2.63564 2.63602C2.35471 2.91695 2.09549 3.21349 1.85706 3.52318L4.89132 6.55745C5.72639 5.15812 7.25508 4.21875 8.99968 4.21875Z" fill="#181819"/>
</g>
<defs>
<clipPath id="clip0_206_97">
<rect width="18" height="18" fill="white"/>
</clipPath>
</defs>
</svg>
