<svg width="20" height="20" viewBox="0 0 20 20" fill="none" xmlns="http://www.w3.org/2000/svg">
<path d="M9.99998 1.66666C7.70248 1.66666 5.83331 3.53583 5.83331 5.83333V8.33333H4.99998C4.08081 8.33333 3.33331 9.08083 3.33331 10V16.6667C3.33331 17.5858 4.08081 18.3333 4.99998 18.3333H15C15.9191 18.3333 16.6666 17.5858 16.6666 16.6667V10C16.6666 9.08083 15.9191 8.33333 15 8.33333H14.1666V5.83333C14.1666 3.53583 12.2975 1.66666 9.99998 1.66666ZM15 10L15.0016 16.6667H4.99998V10H15ZM7.49998 8.33333V5.83333C7.49998 4.455 8.62165 3.33333 9.99998 3.33333C11.3783 3.33333 12.5 4.455 12.5 5.83333V8.33333H7.49998Z" fill="#777789"/>
</svg>
