<svg width="24" height="24" viewBox="0 0 24 24" fill="none" xmlns="http://www.w3.org/2000/svg">
<path d="M11.9477 0.0219997C9.88629 0.171088 7.48629 -0.320852 5.78576 1.15462C4.81304 2.2833 4.11439 3.62722 3.26963 4.85511C2.21575 6.57239 1.11181 8.35002 0.682905 10.3362C0.633481 12.8415 2.63745 14.6628 3.57545 16.828C4.42895 18.2443 5.20328 20.1738 7.0477 20.4578C8.53752 20.6304 10.0422 20.3797 11.5322 20.5446C12.6136 20.5794 13.288 21.4698 13.6906 22.376C14.0721 23.2806 15.1722 24.6429 16.149 23.6569C17.0778 22.7721 17.2692 21.4024 18.0952 20.4408C19.7809 17.3301 21.8677 14.4301 23.2272 11.1483C23.7231 8.91248 22.0749 7.04868 21.0245 5.2567C20.0863 3.66303 19.4341 1.79011 17.9559 0.595062C16.7311 -0.274226 15.1373 0.118102 13.7349 0C13.1391 0.00395079 12.5434 0.0163524 11.9477 0.0219916V0.0219997ZM13.0738 1.06995C14.5818 0.806013 12.6921 2.32977 12.6085 2.93226C9.95898 7.48556 7.19036 11.9751 4.79164 16.6691C3.6739 14.5433 1.83703 12.6112 1.77893 10.0827C3.00764 7.06852 4.75139 4.28878 6.72115 1.70687C8.65575 0.6023 10.984 1.33779 13.0738 1.06995ZM16.0381 1.17243C17.6192 1.10312 18.4153 2.70708 19.0121 3.91413C19.6204 4.98091 20.2319 6.033 20.8754 7.08089C21.6705 8.31733 22.6798 9.817 22.1282 11.3432C21.5125 12.6316 19.8842 12.5151 18.6869 12.4468C17.7337 12.4591 16.8215 12.6731 16.5476 11.5263C15.2315 9.25826 13.9315 6.9808 12.6419 4.69754C13.6329 3.45124 14.0747 1.15391 16.0381 1.17243V1.17243ZM12.4127 6.53559C13.5964 8.48914 14.7065 10.4859 15.8596 12.4574C13.3354 12.4574 10.8112 12.4574 8.28701 12.4574C9.5545 10.3073 10.7385 8.10773 12.07 5.99563C12.1842 6.17562 12.2984 6.3556 12.4127 6.53559V6.53559ZM20.7952 13.5186C19.0245 16.674 17.3075 19.8652 15.3229 22.8939C14.3701 21.8504 14.1315 20.0245 12.6048 19.6059C11.1038 19.4309 9.58511 19.596 8.07498 19.5455C6.97995 19.51 5.51337 18.9973 5.6677 17.6494C5.74533 16.1167 6.91096 14.9729 7.50683 13.631C11.9595 13.5529 16.4149 13.5711 20.8646 13.3665C20.8414 13.4172 20.8183 13.4679 20.7952 13.5186V13.5186Z" fill="#181819"/>
</svg>
