<svg width="22" height="22" viewBox="0 0 22 22" fill="none" xmlns="http://www.w3.org/2000/svg">
<path d="M21.1945 9.05542C22.2685 10.1294 22.2685 11.8706 21.1945 12.9445C20.1206 14.0185 18.3794 14.0185 17.3055 12.9445C16.2315 11.8706 16.2315 10.1294 17.3055 9.05542C18.3794 7.98148 20.1206 7.98148 21.1945 9.05542Z" fill="#181819"/>
<path d="M12.9445 9.05542C14.0185 10.1294 14.0185 11.8706 12.9445 12.9445C11.8706 14.0185 10.1294 14.0185 9.05545 12.9445C7.98152 11.8706 7.98152 10.1294 9.05545 9.05542C10.1294 7.98148 11.8706 7.98148 12.9445 9.05542Z" fill="#181819"/>
<path d="M4.69454 9.05542C5.76847 10.1294 5.76847 11.8706 4.69454 12.9445C3.6206 14.0185 1.87939 14.0185 0.805453 12.9445C-0.268484 11.8706 -0.268484 10.1294 0.805453 9.05542C1.87939 7.98148 3.6206 7.98148 4.69454 9.05542Z" fill="#181819"/>
</svg>
