<svg width="24" height="24" viewBox="0 0 24 24" fill="none" xmlns="http://www.w3.org/2000/svg">
<path d="M19.6801 12.3953C19.6801 11.9153 19.313 11.5482 18.833 11.5482C18.353 11.5482 17.986 11.9153 17.986 12.3953C17.986 15.6988 15.3036 18.3812 12.0001 18.3812C8.69654 18.3812 6.01419 15.6988 6.01419 12.3953C6.01419 11.9153 5.64713 11.5482 5.16713 11.5482C4.68713 11.5482 4.32007 11.9153 4.32007 12.3953C4.32007 16.32 7.25654 19.6235 11.153 20.0471V22.3059H8.07536C7.59536 22.3059 7.2283 22.6729 7.2283 23.1529C7.2283 23.6329 7.59536 24 8.07536 24H15.9248C16.4048 24 16.7718 23.6329 16.7718 23.1529C16.7718 22.6729 16.4048 22.3059 15.9248 22.3059H12.8471V20.0471C16.7436 19.6235 19.6801 16.32 19.6801 12.3953Z" fill="white"/>
<path d="M12 0C9.40231 0 7.28467 2.11765 7.28467 4.71529V12.3671C7.28467 14.9929 9.40231 17.0824 12 17.1106C14.5976 17.1106 16.7152 14.9929 16.7152 12.3953V4.71529C16.7152 2.11765 14.5976 0 12 0Z" fill="white"/>
</svg>
