<svg width="20" height="20" viewBox="0 0 20 20" fill="none" xmlns="http://www.w3.org/2000/svg">
<path fill-rule="evenodd" clip-rule="evenodd" d="M18.9225 1.07739C19.2479 1.40283 19.2479 1.93047 18.9225 2.2559L9.75584 11.4226C9.4304 11.748 8.90277 11.748 8.57733 11.4226C8.25189 11.0971 8.25189 10.5695 8.57733 10.2441L17.744 1.07739C18.0694 0.751954 18.5971 0.751954 18.9225 1.07739Z" fill="black"/>
<path fill-rule="evenodd" clip-rule="evenodd" d="M18.9225 1.07741C19.1489 1.30378 19.2256 1.63981 19.1198 1.94196L13.2865 18.6086C13.1736 18.9311 12.8753 19.1521 12.5339 19.166C12.1925 19.1799 11.8772 18.984 11.7384 18.6718L8.53525 11.4647L1.32814 8.26151C1.01591 8.12274 0.820021 7.80743 0.833949 7.46603C0.847877 7.12464 1.0688 6.82633 1.3913 6.71346L18.058 0.880121C18.3601 0.774366 18.6962 0.851049 18.9225 1.07741ZM3.92582 7.59217L9.50504 10.0718C9.69357 10.1556 9.84431 10.3064 9.9281 10.4949L12.4078 16.0741L16.975 3.02498L3.92582 7.59217Z" fill="black"/>
</svg>
